<svg width="16" height="16" viewBox="0 0 16 16" fill="none" xmlns="http://www.w3.org/2000/svg">
<g clip-path="url(#clip0_2207_6255)">
<path fill-rule="evenodd" clip-rule="evenodd" d="M6.13667 5.7104V4.19025C6.13667 4.06245 6.18467 3.96626 6.29533 3.90236L9.324 2.14274C9.73667 1.90261 10.228 1.79095 10.7353 1.79095C12.638 1.79095 13.8433 3.27882 13.8433 4.86221C13.8433 4.97454 13.8433 5.10234 13.8273 5.23014L10.6873 3.37434C10.6021 3.31957 10.5031 3.29048 10.402 3.29048C10.3009 3.29048 10.2019 3.31957 10.1167 3.37434L6.13667 5.7104ZM13.2093 11.6296V7.99871C13.2093 7.77473 13.114 7.61531 12.9233 7.50298L8.94333 5.16691L10.2433 4.41491C10.2904 4.38363 10.3456 4.36696 10.402 4.36696C10.4584 4.36696 10.5136 4.38363 10.5607 4.41491L13.5893 6.1752C14.462 6.6864 15.0487 7.77473 15.0487 8.83076C15.0487 10.0469 14.3353 11.1668 13.2087 11.6309L13.2093 11.6296ZM5.20133 8.43122L3.90133 7.66307C3.79 7.59917 3.742 7.50298 3.742 7.37518V3.8546C3.742 2.14274 5.042 0.846571 6.80267 0.846571C7.46933 0.846571 8.08733 1.07056 8.61067 1.47078L5.48667 3.29497C5.29667 3.40662 5.20133 3.56671 5.20133 3.7907V8.43055V8.43122ZM8 10.0624L6.13667 9.00632V6.76644L8 5.7104L9.86333 6.76644V9.00632L8 10.0624ZM9.19733 14.9255C8.53067 14.9255 7.91267 14.7022 7.38933 14.302L10.5133 12.4778C10.7033 12.3661 10.7987 12.2061 10.7987 11.9821V7.34222L12.1147 8.11037C12.226 8.17427 12.2733 8.27046 12.2733 8.39826V11.9182C12.2733 13.63 10.9573 14.9255 9.19733 14.9255ZM5.43933 11.3585L2.41 9.59824C1.538 9.08637 0.951333 7.99871 0.951333 6.94267C0.949278 6.34263 1.12474 5.75562 1.45526 5.25677C1.78578 4.75793 2.25633 4.36995 2.80667 4.14249V7.7902C2.80667 8.01418 2.902 8.17427 3.092 8.2866L7.05667 10.6065L5.75667 11.3585C5.70959 11.3899 5.65441 11.4066 5.598 11.4066C5.54159 11.4066 5.48641 11.3899 5.43933 11.3585ZM5.26467 13.9818C3.47267 13.9818 2.15667 12.6224 2.15667 10.9422C2.15667 10.8144 2.17267 10.6866 2.188 10.5588L5.312 12.3816C5.50267 12.4939 5.69267 12.4939 5.88267 12.3816L9.86267 10.0624V11.5825C9.86267 11.7103 9.816 11.8065 9.70467 11.8704L6.676 13.63C6.26333 13.8702 5.772 13.9818 5.26467 13.9818ZM9.19733 15.8854C10.111 15.8854 10.9967 15.5671 11.7046 14.9842C12.4124 14.4012 12.899 13.5895 13.082 12.6863C14.858 12.2222 16 10.5413 16 8.83009C16 7.71015 15.5247 6.6225 14.668 5.8382C14.7473 5.50189 14.7947 5.16624 14.7947 4.8306C14.7947 2.54296 12.9553 0.830428 10.8307 0.830428C10.4027 0.830428 9.99067 0.894328 9.57733 1.03894C8.83733 0.304028 7.84167 -0.109536 6.80333 -0.113281C5.88953 -0.113324 5.00377 0.205122 4.2959 0.788181C3.58803 1.37124 3.10152 2.18311 2.91867 3.08645C1.142 3.55057 0 5.23081 0 6.94267C0 8.06329 0.475333 9.15094 1.332 9.93456C1.25267 10.2709 1.20533 10.6072 1.20533 10.9428C1.20533 13.2305 3.04467 14.9423 5.16933 14.9423C5.59733 14.9423 6.00933 14.8784 6.42267 14.7345C7.16275 15.4697 8.15874 15.8833 9.19733 15.8867V15.8854Z" fill="#CCCCCC"/>
</g>
<defs>
<clipPath id="clip0_2207_6255">
<rect width="16" height="16" fill="white"/>
</clipPath>
</defs>
</svg>
