<svg width="16" height="16" viewBox="0 0 16 16" fill="none" xmlns="http://www.w3.org/2000/svg">
<path fill-rule="evenodd" clip-rule="evenodd" d="M6.80798 5.98418V5.08018C6.89265 5.07351 6.97865 5.06885 7.06665 5.06618C9.46398 4.98818 11.038 7.18885 11.038 7.18885C11.038 7.18885 9.33931 9.62018 7.51665 9.62018C7.27556 9.62127 7.036 9.58184 6.80798 9.50351V6.76418C7.74131 6.88018 7.92865 7.30551 8.48998 8.26951L9.73865 7.18485C9.44405 6.81503 9.07275 6.51349 8.65036 6.30103C8.22797 6.08857 7.76452 5.97023 7.29198 5.95418C7.12956 5.95497 6.96731 5.96476 6.80598 5.98351M6.80598 2.99951V4.34951C6.89265 4.34285 6.97865 4.33685 7.06465 4.33351C10.3993 4.21751 12.572 7.15085 12.572 7.15085C12.572 7.15085 10.0766 10.2775 7.47665 10.2775C7.25131 10.2775 7.02665 10.2568 6.80531 10.2162V11.0495C6.99065 11.0748 7.17731 11.0875 7.36398 11.0875C9.78331 11.0875 11.5326 9.81418 13.2266 8.30818C13.5073 8.53951 14.6573 9.10351 14.894 9.35085C13.2833 10.7395 9.52865 11.8595 7.40065 11.8595C7.19531 11.8595 6.99865 11.8462 6.80465 11.8275V13.0002H16V3.00018H6.80665L6.80598 2.99951ZM6.80598 9.50351V10.2155C4.56865 9.80484 3.94798 7.40885 3.94798 7.40885C4.70915 6.62025 5.71812 6.11706 6.80598 5.98351V6.76485H6.80265C6.48345 6.76181 6.16768 6.83086 5.87887 6.96683C5.59007 7.10281 5.33567 7.30221 5.13465 7.55018C5.13465 7.55018 5.54465 9.06685 6.80598 9.50351ZM2.83198 7.30418C3.78931 6.01418 5.23465 5.20551 6.80598 5.08018V4.34884C3.87331 4.59151 1.33331 7.14884 1.33331 7.14884C1.33331 7.14884 2.77198 11.4335 6.80665 11.8255V11.0482C3.84665 10.6668 2.83331 7.30551 2.83331 7.30551H2.83198V7.30418Z" fill="currentColor"/>
</svg>
