<svg width="16" height="16" viewBox="0 0 16 16" fill="none" xmlns="http://www.w3.org/2000/svg">
<path fill-rule="evenodd" clip-rule="evenodd" d="M4.598 2.6665C5.87467 2.6665 6.942 3.28784 8.218 4.91717L8.406 4.6685C8.53267 4.5045 8.66133 4.34584 8.79267 4.19517L9.00133 3.96184C9.72533 3.19184 10.528 2.6665 11.4833 2.6665C12.332 2.6665 13.1293 3.03784 13.8107 3.67717L13.956 3.81917C15.1093 4.99584 15.9007 6.95917 15.9913 9.16984L15.9987 9.43117L16 9.59784C16 10.5985 15.8133 11.4372 15.4547 12.0645L15.3613 12.2178L15.2893 12.3198C15.0887 12.5998 14.8467 12.8252 14.5653 12.9925L14.3887 13.0872L14.3307 13.1138C14.2648 13.1432 14.1976 13.1694 14.1293 13.1925C13.8434 13.2871 13.5438 13.3339 13.2427 13.3312C12.8933 13.3312 12.5787 13.2865 12.284 13.1878C11.8747 13.0518 11.5087 12.8145 11.1333 12.4438L10.982 12.2872C10.48 11.7458 9.95933 10.9698 9.32 9.8965L8.36667 8.28984L8.004 7.69317L6.82667 9.77984L6.598 10.1745C5.06467 12.7705 4.15133 13.3332 2.904 13.3332C2.09733 13.3332 1.434 13.0532 0.946667 12.5452L0.834667 12.4225C0.512 12.0405 0.276667 11.5485 0.139333 10.9632L0.0946667 10.7498C0.0431275 10.4663 0.0128211 10.1792 0.004 9.89117L0 9.64517C0.00133333 9.1485 0.04 8.65184 0.116 8.1585L0.182667 7.7765C0.381333 6.7565 0.734667 5.8045 1.20667 5.00517L1.346 4.7785C2.13067 3.5585 3.20533 2.74317 4.42267 2.67184L4.598 2.6665ZM4.576 4.40984L4.442 4.4165C3.88867 4.47184 3.37133 4.86517 2.94067 5.46784L2.84867 5.6005L2.842 5.6125C2.39533 6.2905 2.052 7.19784 1.87133 8.17584L1.86867 8.1905C1.77765 8.68623 1.73146 9.18915 1.73067 9.69317L1.732 9.8185C1.73467 9.9385 1.74333 10.0585 1.75867 10.1785L1.78733 10.3725C1.84867 10.7078 1.95867 10.9778 2.11133 11.1778L2.18933 11.2692C2.39133 11.4845 2.65467 11.5972 2.96933 11.5972C3.70267 11.5972 4.16667 11.1465 5.43333 9.16984L6.88333 6.90317L7.186 6.43584L7.09333 6.30384C6.07333 4.8665 5.38933 4.4105 4.576 4.4105V4.40984ZM11.3733 4.04184L11.256 4.0465C10.8327 4.0785 10.4407 4.28584 10.0427 4.6685L9.912 4.8005C9.61933 5.1085 9.32067 5.50984 9.00067 6.00517L9.178 6.2705C9.298 6.45317 9.41933 6.64384 9.54467 6.8425L9.74 7.15917L10.6707 8.71584L11.134 9.4585C11.5227 10.0758 11.8207 10.5252 12.0727 10.8465L12.2147 11.0212C12.4027 11.2385 12.5673 11.3812 12.7327 11.4698L12.8007 11.5032C12.952 11.5698 13.1053 11.5952 13.2793 11.5952C13.3967 11.5965 13.5127 11.5798 13.6247 11.5465C13.85 11.4772 14.0313 11.3332 14.1667 11.1218L14.23 11.0132L14.2813 10.9052C14.4107 10.5992 14.4747 10.1985 14.4747 9.71517L14.4707 9.41584C14.4173 7.50184 13.8453 5.8345 13.004 4.88384L12.8867 4.75784C12.44 4.3025 11.924 4.04184 11.3733 4.04184Z" fill="currentColor"/>
</svg>
