<svg width="16" height="16" viewBox="0 0 16 16" fill="none" xmlns="http://www.w3.org/2000/svg">
<g clip-path="url(#clip0_1437_58618)">
<path fill-rule="evenodd" clip-rule="evenodd" d="M8.40265 0.893281C8.66465 1.35328 8.92531 1.81461 9.18531 2.27661C9.19582 2.29509 9.21105 2.31044 9.22944 2.3211C9.24783 2.33176 9.26872 2.33734 9.28998 2.33728H12.9913C13.1073 2.33728 13.206 2.41061 13.2886 2.55528L14.258 4.26861C14.3846 4.49328 14.418 4.58728 14.274 4.82661C14.1006 5.11328 13.932 5.40261 13.7673 5.69328L13.5226 6.13195C13.452 6.26261 13.374 6.31861 13.496 6.47328L15.264 9.56461C15.3786 9.76528 15.338 9.89395 15.2353 10.0779C14.944 10.6013 14.6473 11.1206 14.3453 11.6379C14.2393 11.8193 14.1106 11.8879 13.892 11.8846C13.374 11.8739 12.8573 11.8779 12.3406 11.8953C12.3296 11.8959 12.3188 11.8992 12.3094 11.905C12.2999 11.9109 12.2921 11.919 12.2866 11.9286C11.6905 12.9848 11.0894 14.0381 10.4833 15.0886C10.3706 15.2839 10.23 15.3306 9.99998 15.3313C9.33531 15.3333 8.66531 15.3339 7.98865 15.3326C7.92565 15.3324 7.86381 15.3156 7.80938 15.2839C7.75495 15.2522 7.70985 15.2067 7.67865 15.1519L6.78865 13.6033C6.78347 13.5932 6.77552 13.5847 6.76572 13.5789C6.75592 13.5731 6.74468 13.5703 6.73331 13.5706H3.32131C3.13131 13.5906 2.95265 13.5699 2.78465 13.5093L1.71598 11.6626C1.68437 11.6079 1.66762 11.5459 1.66739 11.4828C1.66715 11.4196 1.68345 11.3575 1.71465 11.3026L2.51931 9.88928C2.53077 9.86929 2.53681 9.84665 2.53681 9.82361C2.53681 9.80057 2.53077 9.77793 2.51931 9.75795C2.10016 9.03226 1.68349 8.30515 1.26931 7.57661L0.742646 6.64661C0.635979 6.43995 0.627313 6.31595 0.805979 6.00328C1.11598 5.46128 1.42398 4.91995 1.73065 4.37928C1.81865 4.22328 1.93331 4.15661 2.11998 4.15595C2.69531 4.15352 3.27065 4.1533 3.84598 4.15528C3.86051 4.15517 3.87476 4.15123 3.88728 4.14385C3.89981 4.13648 3.91016 4.12593 3.91731 4.11328L5.78798 0.849947C5.81633 0.800303 5.85726 0.759005 5.90665 0.730214C5.95604 0.701423 6.01214 0.686155 6.06931 0.685947C6.41865 0.685281 6.77131 0.685947 7.12465 0.681947L7.80265 0.666614C8.02998 0.664614 8.28531 0.687947 8.40265 0.893281ZM6.11465 1.16195C6.10762 1.16194 6.10072 1.16379 6.09463 1.1673C6.08855 1.17081 6.08349 1.17586 6.07998 1.18195L4.16931 4.52528C4.16014 4.54104 4.14701 4.55412 4.13122 4.56324C4.11544 4.57236 4.09754 4.5772 4.07931 4.57728H2.16865C2.13131 4.57728 2.12198 4.59395 2.14131 4.62661L6.01465 11.3973C6.03131 11.4253 6.02331 11.4386 5.99198 11.4393L4.12865 11.4493C4.10141 11.4484 4.07446 11.4551 4.05088 11.4688C4.02731 11.4825 4.00805 11.5025 3.99531 11.5266L3.11531 13.0666C3.08598 13.1186 3.10131 13.1453 3.16065 13.1453L6.97131 13.1506C7.00198 13.1506 7.02465 13.1639 7.04065 13.1913L7.97598 14.8273C8.00665 14.8813 8.03731 14.8819 8.06865 14.8273L11.406 8.98728L11.928 8.06595C11.9312 8.06026 11.9358 8.05552 11.9414 8.05222C11.9471 8.04892 11.9535 8.04718 11.96 8.04718C11.9665 8.04718 11.9729 8.04892 11.9785 8.05222C11.9842 8.05552 11.9888 8.06026 11.992 8.06595L12.9413 9.75261C12.9484 9.76523 12.9588 9.77572 12.9714 9.78299C12.9839 9.79026 12.9982 9.79404 13.0126 9.79395L14.8546 9.78061C14.8594 9.78066 14.864 9.77944 14.8681 9.7771C14.8722 9.77476 14.8756 9.77137 14.878 9.76728C14.8803 9.76321 14.8815 9.75862 14.8815 9.75395C14.8815 9.74928 14.8803 9.74469 14.878 9.74061L12.9446 6.34995C12.9377 6.33861 12.934 6.32558 12.934 6.31228C12.934 6.29898 12.9377 6.28595 12.9446 6.27461L13.14 5.93661L13.8866 4.61861C13.9026 4.59128 13.8946 4.57728 13.8633 4.57728H6.13331C6.09398 4.57728 6.08465 4.55995 6.10465 4.52595L7.06065 2.85595C7.06781 2.84457 7.07161 2.83139 7.07161 2.81795C7.07161 2.8045 7.06781 2.79133 7.06065 2.77995L6.14998 1.18261C6.1465 1.17631 6.14138 1.17106 6.13516 1.16742C6.12894 1.16378 6.12185 1.16189 6.11465 1.16195ZM10.308 6.50861C10.3386 6.50861 10.3466 6.52195 10.3306 6.54861L9.77598 7.52528L8.03398 10.5819C8.03071 10.5879 8.02587 10.5928 8.02 10.5962C8.01413 10.5997 8.00744 10.6014 8.00065 10.6013C7.99389 10.6013 7.98725 10.5995 7.9814 10.5961C7.97555 10.5927 7.97069 10.5878 7.96731 10.5819L5.66531 6.56061C5.65198 6.53795 5.65865 6.52595 5.68398 6.52461L5.82798 6.51661L10.3093 6.50861H10.308Z" fill="currentColor"/>
</g>
<defs>
<clipPath id="clip0_1437_58618">
<rect width="16" height="16" fill="white"/>
</clipPath>
</defs>
</svg>
