<svg width="16" height="16" viewBox="0 0 16 16" fill="none" xmlns="http://www.w3.org/2000/svg">
<g clip-path="url(#clip0_1422_83570)">
<path fill-rule="evenodd" clip-rule="evenodd" d="M15.3334 8.16357C15.3334 7.56024 15.2834 7.12024 15.176 6.66357H8.14935V9.38557H12.2734C12.1907 10.0616 11.742 11.0802 10.744 11.7649L10.73 11.8556L12.9514 13.5422L13.1047 13.5569C14.5194 12.2782 15.3334 10.3956 15.3334 8.16357Z" fill="currentColor"/>
<path fill-rule="evenodd" clip-rule="evenodd" d="M8.14999 15.333C10.17 15.333 11.866 14.681 13.1053 13.5564L10.744 11.7644C10.112 12.1964 9.26399 12.4977 8.14999 12.4977C7.21096 12.4978 6.29546 12.2039 5.53194 11.6573C4.76842 11.1106 4.19518 10.3387 3.89266 9.44971L3.80466 9.45704L1.49466 11.209L1.46466 11.2917C2.69533 13.687 5.22333 15.333 8.14999 15.333Z" fill="currentColor"/>
<path fill-rule="evenodd" clip-rule="evenodd" d="M3.89335 9.44988C3.72938 8.98392 3.64443 8.49384 3.64202 7.99988C3.64202 7.49454 3.73402 7.00588 3.88269 6.54987L3.87869 6.45188L1.54002 4.67188L1.46335 4.70787C0.940549 5.72652 0.667481 6.8549 0.666687 7.99988C0.666687 9.18121 0.957354 10.2979 1.46469 11.2919L3.89335 9.44988Z" fill="currentColor"/>
<path fill-rule="evenodd" clip-rule="evenodd" d="M8.14999 3.50184C9.55533 3.50184 10.5027 4.0965 11.0433 4.59384L13.1547 2.57317C11.858 1.39184 10.17 0.666504 8.14999 0.666504C5.22266 0.666504 2.69533 2.3125 1.46466 4.70784L3.88466 6.54984C4.18978 5.66094 4.76478 4.88947 5.52942 4.34306C6.29405 3.79665 7.21019 3.50257 8.14999 3.50184Z" fill="currentColor"/>
</g>
<defs>
<clipPath id="clip0_1422_83570">
<rect width="16" height="16" fill="white"/>
</clipPath>
</defs>
</svg>
