<svg width="16" height="16" viewBox="0 0 16 16" fill="none" xmlns="http://www.w3.org/2000/svg">
<path fill-rule="evenodd" clip-rule="evenodd" d="M11.1915 1.38672L16 4.04924V4.10567L11.1422 6.73966L11.1535 5.36656L10.6067 5.3471C9.90143 5.32894 9.5338 5.3484 9.09624 5.41845C8.38761 5.53196 7.73893 5.7927 7.00033 6.29537L5.55778 7.27152C5.36863 7.39799 5.22811 7.48945 5.1049 7.56663L4.7619 7.77548L4.4975 7.92726L4.75391 8.07644L5.10689 8.29567C5.42391 8.49933 5.88611 8.81195 6.90576 9.50596C7.64502 10.0086 8.29304 10.2694 9.00167 10.3829L9.20147 10.4121C9.66367 10.4711 10.1172 10.473 11.0829 10.4335L11.0976 9.03313L15.9061 11.6957V11.7521L11.0483 14.3867L11.0576 13.179L10.6347 13.1933C9.71162 13.2205 9.21146 13.1946 8.54479 13.0882C7.41658 12.9066 6.37363 12.4876 5.29404 11.7527L3.85681 10.7798C3.69149 10.6688 3.52384 10.5611 3.35398 10.4568L3.04296 10.2752C2.87498 10.181 2.70626 10.088 2.5368 9.99631C1.93673 9.67136 0.374958 9.27311 0 9.27311V6.53081L0.0932401 6.5334C0.468864 6.52886 2.0313 6.12997 2.63004 5.80437L3.30669 5.42818L3.5984 5.25046C3.88345 5.06885 4.31235 4.77957 5.38728 4.0486C6.46687 3.31373 7.50916 2.89408 8.63803 2.71312C9.40526 2.58988 9.95271 2.57496 11.1782 2.62361L11.1915 1.38672Z" fill="#CCCCCC"/>
</svg>
