<svg width="16" height="16" viewBox="0 0 16 16" fill="none" xmlns="http://www.w3.org/2000/svg">
<g clip-path="url(#clip0_1422_83572)">
<path fill-rule="evenodd" clip-rule="evenodd" d="M15.832 2.98784C15.6627 2.90517 15.5894 3.06317 15.4907 3.14384C15.4567 3.16984 15.428 3.20384 15.3994 3.2345C15.1514 3.49917 14.862 3.6725 14.484 3.65184C13.9314 3.62117 13.4594 3.7945 13.042 4.21717C12.9534 3.69584 12.6587 3.38517 12.2107 3.18517C11.976 3.08117 11.7387 2.97784 11.574 2.75184C11.4594 2.59117 11.428 2.41184 11.3707 2.23584C11.334 2.12917 11.2974 2.0205 11.1754 2.0025C11.042 1.98184 10.99 2.09317 10.938 2.1865C10.7294 2.56784 10.6487 2.98784 10.6567 3.41317C10.6747 4.3705 11.0787 5.13317 11.882 5.67517C11.9734 5.73717 11.9967 5.79984 11.968 5.8905C11.9134 6.07717 11.848 6.2585 11.7907 6.44584C11.754 6.56517 11.6994 6.5905 11.5714 6.53917C11.1389 6.3533 10.746 6.08626 10.414 5.7525C9.84269 5.2005 9.32669 4.59117 8.68269 4.11384C8.53348 4.00358 8.38026 3.89884 8.22336 3.79984C7.56669 3.16184 8.31003 2.63784 8.48203 2.57584C8.66203 2.5105 8.54403 2.28784 7.96269 2.2905C7.38136 2.29317 6.84936 2.48717 6.17136 2.7465C6.07061 2.78511 5.96695 2.81565 5.86136 2.83784C5.22778 2.71846 4.57979 2.69553 3.93936 2.76984C2.68269 2.90984 1.67936 3.5045 0.941361 4.5185C0.0546941 5.73717 -0.153973 7.1225 0.101361 8.5665C0.370028 10.0892 1.14736 11.3498 2.34136 12.3352C3.58003 13.3572 5.00603 13.8578 6.63336 13.7618C7.62136 13.7052 8.72203 13.5725 9.96269 12.5218C10.276 12.6778 10.604 12.7398 11.1494 12.7865C11.5694 12.8258 11.9734 12.7665 12.286 12.7012C12.776 12.5972 12.742 12.1432 12.5654 12.0605C11.1287 11.3912 11.444 11.6638 11.1567 11.4432C11.8874 10.5792 12.9874 9.68184 13.418 6.7745C13.4514 6.54317 13.4227 6.39784 13.418 6.21117C13.4154 6.09784 13.4414 6.05317 13.5714 6.0405C13.9321 6.00309 14.2819 5.89551 14.6014 5.72384C15.532 5.21517 15.908 4.3805 15.9967 3.37917C16.01 3.22584 15.994 3.0685 15.832 2.98784ZM7.72069 11.9998C6.32803 10.9052 5.65269 10.5445 5.37403 10.5598C5.11269 10.5758 5.16003 10.8738 5.21736 11.0685C5.27736 11.2605 5.35536 11.3925 5.46469 11.5612C5.54069 11.6725 5.59269 11.8385 5.38936 11.9632C4.94069 12.2405 4.16136 11.8698 4.12469 11.8518C3.21736 11.3172 2.45803 10.6118 1.92403 9.64717C1.40803 8.7185 1.10803 7.7225 1.05869 6.65917C1.04536 6.40184 1.12069 6.31117 1.37669 6.2645C1.71277 6.20019 2.05711 6.19141 2.39603 6.2385C3.81736 6.4465 5.02669 7.08184 6.04136 8.08784C6.62003 8.66117 7.05803 9.34584 7.50936 10.0152C7.98936 10.7258 8.50536 11.4032 9.16269 11.9578C9.39469 12.1525 9.57936 12.3005 9.75669 12.4092C9.22203 12.4692 8.33003 12.4825 7.72069 11.9998ZM8.38736 7.7065C8.38725 7.67339 8.39519 7.64074 8.41052 7.61138C8.42584 7.58203 8.44809 7.55684 8.47532 7.538C8.50256 7.51917 8.53398 7.50724 8.56685 7.50327C8.59973 7.49929 8.63308 7.50337 8.66403 7.51517C8.70347 7.52932 8.73751 7.55542 8.76141 7.58984C8.78531 7.62426 8.79788 7.66527 8.79736 7.70717C8.79745 7.73424 8.79215 7.76106 8.78177 7.78606C8.7714 7.81107 8.75614 7.83375 8.73691 7.8528C8.71767 7.87185 8.69484 7.88688 8.66974 7.89702C8.64463 7.90715 8.61776 7.91219 8.59069 7.91184C8.56383 7.91193 8.53721 7.90666 8.51241 7.89634C8.4876 7.88602 8.46511 7.87086 8.44623 7.85174C8.42736 7.83262 8.41249 7.80992 8.4025 7.78498C8.3925 7.76005 8.38692 7.73337 8.38736 7.7065ZM10.4607 8.7705C10.3274 8.8245 10.1947 8.87117 10.0674 8.87717C9.87579 8.88385 9.68782 8.82402 9.53536 8.70784C9.35269 8.5545 9.22203 8.46917 9.16736 8.2025C9.14851 8.07219 9.15212 7.9396 9.17803 7.8105C9.22469 7.5925 9.17269 7.4525 9.01869 7.32584C8.89403 7.22184 8.73469 7.19317 8.56003 7.19317C8.50022 7.1897 8.44214 7.17186 8.39069 7.14117C8.31736 7.10517 8.25736 7.0145 8.31469 6.9025C8.33336 6.8665 8.42136 6.7785 8.44269 6.7625C8.68003 6.62784 8.95403 6.67184 9.20669 6.77317C9.44136 6.86917 9.61869 7.04517 9.87403 7.2945C10.1347 7.59517 10.182 7.6785 10.3307 7.90384C10.448 8.0805 10.5547 8.26184 10.6274 8.46917C10.672 8.59917 10.6147 8.70517 10.4607 8.7705Z" fill="currentColor"/>
</g>
<defs>
<clipPath id="clip0_1422_83572">
<rect width="16" height="16" fill="white"/>
</clipPath>
</defs>
</svg>
